<svg xmlns="http://www.w3.org/2000/svg" xmlns:xlink="http://www.w3.org/1999/xlink" width="949.85" height="528.05" viewBox="0 0 949.85 528.05"><path d="m0,526.3c0,.94,1.07,1.69,2.41,1.69h945.03c1.33,0,2.41-.75,2.41-1.69s-1.07-1.69-2.41-1.69H2.41c-1.33,0-2.41.75-2.41,1.69Z" fill="#2f2e43" stroke-width="0"/><path d="m744.56,0H149.23c-7.91,0-14.34,6.43-14.34,14.34v398.91c0,7.91,6.43,14.34,14.34,14.34h595.33c7.91,0,14.34-6.43,14.34-14.34V14.34c0-7.91-6.43-14.34-14.34-14.34Z" fill="#d7d7d8" stroke-width="0"/><rect x="150.97" y="13.47" width="596.2" height="337.21" fill="#fff" stroke-width="0"/><path d="m758.9,365.45v47.8c0,7.91-6.43,14.34-14.34,14.34H149.23c-7.91,0-14.34-6.43-14.34-14.34v-47.8h624.01Z" fill="#2f2e41" stroke-width="0"/><rect x="375.2" y="418.47" width="147.75" height="107.77" fill="#2f2e41" stroke-width="0"/><rect x="374.76" y="512.76" width="148.61" height="4.35" fill="#d7d7d8" stroke-width="0"/><path d="m658.38,45.22v7.57H236.29v-7.57c0-4.06,3.29-7.35,7.35-7.35h407.39c4.06,0,7.35,3.29,7.35,7.35Z" fill="#d7d7d8" stroke-width="0"/><circle cx="245.28" cy="45.24" r="2.16" fill="#fff" stroke-width="0"/><circle cx="252.47" cy="45.24" r="2.16" fill="#fff" stroke-width="0"/><circle cx="259.65" cy="45.24" r="2.16" fill="#fff" stroke-width="0"/><rect x="272.59" y="60.69" width="344.82" height="11.14" rx="5.57" ry="5.57" fill="#d7d7d8" stroke-width="0"/><path d="m383.49,192.76h-74.28c-4.48,0-8.13-3.65-8.13-8.13v-63.5c0-4.48,3.65-8.13,8.13-8.13h74.28c4.48,0,8.13,3.65,8.13,8.13v63.5c0,4.48-3.65,8.13-8.13,8.13Zm-74.28-77.27c-3.11,0-5.63,2.53-5.63,5.63v63.5c0,3.11,2.53,5.63,5.63,5.63h74.28c3.11,0,5.63-2.53,5.63-5.63v-63.5c0-3.11-2.53-5.63-5.63-5.63h-74.28Z" fill="#d7d7d8" stroke-width="0"/><path d="m484.48,192.76h-74.28c-4.48,0-8.13-3.65-8.13-8.13v-63.5c0-4.48,3.65-8.13,8.13-8.13h74.28c4.48,0,8.13,3.65,8.13,8.13v63.5c0,4.48-3.65,8.13-8.13,8.13Zm-74.28-77.27c-3.11,0-5.63,2.53-5.63,5.63v63.5c0,3.11,2.53,5.63,5.63,5.63h74.28c3.11,0,5.63-2.53,5.63-5.63v-63.5c0-3.11-2.53-5.63-5.63-5.63h-74.28Z" fill="#d7d7d8" stroke-width="0"/><path d="m585.46,192.76h-74.28c-4.48,0-8.13-3.65-8.13-8.13v-63.5c0-4.48,3.65-8.13,8.13-8.13h74.28c4.48,0,8.13,3.65,8.13,8.13v63.5c0,4.48-3.65,8.13-8.13,8.13Zm-74.28-77.27c-3.11,0-5.63,2.53-5.63,5.63v63.5c0,3.11,2.53,5.63,5.63,5.63h74.28c3.11,0,5.63-2.53,5.63-5.63v-63.5c0-3.11-2.53-5.63-5.63-5.63h-74.28Z" fill="#d7d7d8" stroke-width="0"/><path d="m383.49,292.04h-74.28c-4.48,0-8.13-3.65-8.13-8.13v-63.5c0-4.48,3.65-8.13,8.13-8.13h74.28c4.48,0,8.13,3.65,8.13,8.13v63.5c0,4.48-3.65,8.13-8.13,8.13Zm-74.28-77.27c-3.11,0-5.63,2.53-5.63,5.63v63.5c0,3.11,2.53,5.63,5.63,5.63h74.28c3.11,0,5.63-2.53,5.63-5.63v-63.5c0-3.11-2.53-5.63-5.63-5.63h-74.28Z" fill="#d7d7d8" stroke-width="0"/><path d="m484.48,292.04h-74.28c-4.48,0-8.13-3.65-8.13-8.13v-63.5c0-4.48,3.65-8.13,8.13-8.13h74.28c4.48,0,8.13,3.65,8.13,8.13v63.5c0,4.48-3.65,8.13-8.13,8.13Zm-74.28-77.27c-3.11,0-5.63,2.53-5.63,5.63v63.5c0,3.11,2.53,5.63,5.63,5.63h74.28c3.11,0,5.63-2.53,5.63-5.63v-63.5c0-3.11-2.53-5.63-5.63-5.63h-74.28Z" fill="#d7d7d8" stroke-width="0"/><path d="m585.46,292.04h-74.28c-4.48,0-8.13-3.65-8.13-8.13v-63.5c0-4.48,3.65-8.13,8.13-8.13h74.28c4.48,0,8.13,3.65,8.13,8.13v63.5c0,4.48-3.65,8.13-8.13,8.13Z" fill="#6c63ff" stroke-width="0"/><path d="m786.54,150.66l12.27-9.55s14,4.36,14.36,4.54,21.73,49.74,21.73,49.74c0,0-54.74,28.02-50.74,25.28,4-2.72,3.17-39.65-.55-44.46-3.73-4.82-.55-16.92-.55-16.92l3.45-8.64h.02Z" fill="#2f2e43" stroke-width="0"/><polygon points="820.46 172.99 803.83 172.99 803.83 199.39 822.17 193.36 820.46 172.99" fill="#f3a3a6" stroke-width="0"/><path id="uuid-8fbbfea1-20c6-492e-97ba-4f97c3a2ca55-44-226-137-358" d="m766.1,343.24c.43-2.41.26-4.9-.5-7.26l5.8-24.93-12.37-2.59-4.54,25.57c-1.48,1.96-2.44,4.26-2.8,6.68-1,6.05,1.43,11.53,5.41,12.22,3.98.7,8.01-3.64,9.01-9.69h0Z" fill="#f3a3a6" stroke-width="0"/><rect x="798.09" y="488.92" width="17.18" height="24.37" fill="#f3a3a6" stroke-width="0"/><path d="m781.37,528.05c7.54,0,18.55-.79,18.63-.8,2.95.26,17.65,1.42,18.38-1.94.67-3.09-.32-6.32-.46-6.77-1.42-14.05-1.94-14.22-2.26-14.31-.5-.15-1.96.55-4.33,2.08l-.15.1-.03.17c-.04.21-1.09,5.37-6.07,4.59-3.41-.54-4.52-1.3-4.87-1.67.29-.13.65-.36.9-.75.37-.57.43-1.31.19-2.2-.64-2.33-2.56-5.78-2.64-5.93l-.22-.39-19.52,13.17-12.06,3.45c-.91.25-1.64.91-2.01,1.78h0c-.51,1.21-.2,2.63.79,3.51,2.19,1.97,6.55,5.34,11.11,5.76,1.21.11,2.82.16,4.63.16h0Z" fill="#2f2e43" stroke-width="0"/><rect x="854.76" y="472.48" width="17.18" height="24.37" transform="translate(-125.69 530.29) rotate(-31.95)" fill="#f3a3a6" stroke-width="0"/><path d="m844.82,524.72c2.4,0,5.05-.34,7.28-1.47,5.63-2.83,19.32-12.78,19.4-12.85,2.63-1.33,15.72-8.13,14.56-11.37-1.07-2.98-3.62-5.2-3.97-5.5-8.64-11.18-9.16-11.04-9.48-10.95-.51.14-1.37,1.5-2.58,4.05l-.07.16.07.16c.08.21,1.92,5.14-2.72,7.1-3.18,1.35-4.52,1.3-5.01,1.16.18-.27.36-.65.37-1.12.02-.68-.32-1.35-1-1.97-1.78-1.64-5.23-3.55-5.38-3.63l-.39-.21-9.6,21.51-8.41,9.3c-.64.7-.91,1.64-.76,2.58h0c.21,1.3,1.23,2.33,2.53,2.56,1.32.23,3.17.48,5.19.48h0Z" fill="#2f2e43" stroke-width="0"/><path d="m827.92,285.11s5.57,0,14.3,17.46c8.73,17.47-2.38,87.57-2.38,87.57l31.1,80.48-21.82,15.28-39.83-86.2,9.82,95.48h-24.55l-19.1-165.32,4.36-44.74h48.1s0,0,0,0Z" fill="#2f2e43" stroke-width="0"/><polygon points="831.66 189.08 798.38 189.08 768.37 287.84 851.84 287.84 831.66 189.08" fill="#6c63ff" stroke-width="0"/><path d="m803.64,189.09l-33.83,140.22h-16.92s25.64-129.85,27.83-135.31c2.18-5.46,22.91-4.91,22.91-4.91h0Z" fill="#6c63ff" stroke-width="0"/><circle cx="806.1" cy="162.01" r="18.28" fill="#f3a3a6" stroke-width="0"/><path d="m783.33,158.68l4.48.76c4.18-16.74,13.65-11.27,14.55-11.46s14.36,14.54,13.27,29.46c-1.09,14.91,18.19,21.9,18.19,21.9,0,0,6.74,12.66.73,35.57s6.73,30.6,6.73,30.6c25.1-2.13,10.01-37.15,6.01-43.51-4-6.37-1.27-17.46-1.27-17.46,6.19-5.46-1.09-17.46-1.09-17.46,0,0,1.28-16.01-2.54-19.1s-4-10.73-4-10.73c-6.74-29.28-28.74-23.64-28.74-23.64-28.19-3.09-26.31,25.06-26.31,25.06Z" fill="#2f2e43" stroke-width="0"/><path id="uuid-3af8ea2b-8f5e-4851-abf4-031c35ae2916-45-227-138-359" d="m866.09,340.31h0c-.46-2.41-1.5-4.68-3.05-6.61l-3.44-25.37-12.49,1.98,4.83,25.52c-.67,2.36-.75,4.84-.24,7.24,1.21,6.01,5.42,10.26,9.39,9.5,3.97-.76,6.21-6.25,4.99-12.26h0Z" fill="#f3a3a6" stroke-width="0"/><path d="m848.47,327.66h16.92s-25.64-129.85-27.83-135.31c-2.18-5.46-20.44-3.14-20.44-3.14,0,0,31.35,138.45,31.35,138.45Z" fill="#6c63ff" stroke-width="0"/></svg>